# 3ds Max Wavefront OBJ Exporter v0.97b - (c)2007 guruware
# File Created: 14.04.2012 17:24:19

mtllib torus.mtl

#
# object Torus_Knot001
#

v  0.2754 0.1246 0.0001
v  0.3296 0.1453 -0.1035
v  0.3567 0.2419 -0.1398
v  0.2847 0.2094 0.0641
v  0.2815 0.3082 -0.1762
v  0.2093 0.2848 0.0640
v  0.1793 0.2780 -0.1763
v  0.1246 0.2754 -0.0001
v  0.1522 0.1814 -0.1400
v  0.1153 0.1906 -0.0641
v  0.2273 0.1151 -0.1035
v  0.1907 0.1152 -0.0640
v  0.2730 -0.0362 -0.2647
v  0.2836 -0.0016 -0.3650
v  0.2067 0.0576 -0.4094
v  0.1193 0.0822 -0.3534
v  0.1087 0.0475 -0.2531
v  0.1856 -0.0117 -0.2088
v  0.0910 -0.2606 -0.2615
v  0.0516 -0.2844 -0.3577
v  -0.0201 -0.2200 -0.4034
v  -0.0524 -0.1318 -0.3528
v  -0.0129 -0.1080 -0.2566
v  0.0587 -0.1724 -0.2110
v  -0.0459 -0.2855 -0.1305
v  -0.1412 -0.3026 -0.1752
v  -0.1856 -0.2276 -0.2366
v  -0.1347 -0.1354 -0.2533
v  -0.0394 -0.1182 -0.2086
v  0.0050 -0.1932 -0.1472
v  -0.1184 -0.1961 -0.0115
v  -0.2141 -0.1771 -0.0545
v  -0.2234 -0.1088 -0.1359
v  -0.1370 -0.0593 -0.1741
v  -0.0413 -0.0782 -0.1310
v  -0.0320 -0.1466 -0.0497
v  -0.1371 -0.0855 0.0711
v  -0.2295 -0.0573 0.0259
v  -0.2295 0.0022 -0.0626
v  -0.1372 0.0336 -0.1058
v  -0.0449 0.0055 -0.0605
v  -0.0448 -0.0541 0.0279
v  -0.1364 0.0147 0.1394
v  -0.2275 0.0524 0.0987
v  -0.2255 0.1151 0.0125
v  -0.1324 0.1402 -0.0330
v  -0.0413 0.1025 0.0077
v  -0.0433 0.0398 0.0939
v  -0.1390 0.1000 0.2112
v  -0.2133 0.1690 0.1783
v  -0.1889 0.2430 0.1055
v  -0.0901 0.2480 0.0657
v  -0.0157 0.1791 0.0986
v  -0.0402 0.1051 0.1714
v  -0.1096 0.1539 0.3026
v  -0.1223 0.2584 0.3200
v  -0.0607 0.3288 0.2689
v  0.0136 0.2949 0.2004
v  0.0264 0.1904 0.1831
v  -0.0353 0.1200 0.2342
v  0.0328 0.0486 0.3793
v  0.0993 0.1045 0.4412
v  0.1753 0.1648 0.3969
v  0.1849 0.1691 0.2908
v  0.1184 0.1132 0.2289
v  0.0424 0.0529 0.2732
v  0.1716 -0.2060 0.2754
v  0.2717 -0.2118 0.3119
v  0.3477 -0.1504 0.2691
v  0.3237 -0.0833 0.1898
v  0.2236 -0.0775 0.1532
v  0.1476 -0.1389 0.1960
v  0.1575 -0.2957 0.0817
v  0.2500 -0.3264 0.0384
v  0.3252 -0.2539 0.0165
v  0.3078 -0.1509 0.0378
v  0.2153 -0.1203 0.0811
v  0.1401 -0.1927 0.1030
v  0.0908 -0.2317 -0.0646
v  0.1750 -0.2209 -0.1292
v  0.2501 -0.1485 -0.1072
v  0.2411 -0.0869 -0.0206
v  0.1569 -0.0977 0.0440
v  0.0818 -0.1701 0.0220
v  0.0273 -0.1217 -0.1398
v  0.1132 -0.0954 -0.1972
v  0.1892 -0.0341 -0.1544
v  0.1793 0.0010 -0.0542
v  0.0934 -0.0253 0.0032
v  0.0174 -0.0866 -0.0396
v  -0.0329 -0.0171 -0.1771
v  0.0499 0.0159 -0.2357
v  0.1259 0.0762 -0.1914
v  0.1192 0.1034 -0.0885
v  0.0364 0.0704 -0.0299
v  -0.0396 0.0101 -0.0742
v  -0.0923 0.0733 -0.2123
v  -0.0185 0.1285 -0.2660
v  0.0431 0.1989 -0.2149
v  0.0308 0.2143 -0.1100
v  -0.0430 0.1591 -0.0563
v  -0.1046 0.0886 -0.1075
v  -0.1681 0.1444 -0.2466
v  -0.1422 0.2432 -0.2775
v  -0.1178 0.3171 -0.2046
v  -0.1194 0.2924 -0.1009
v  -0.1453 0.1937 -0.0700
v  -0.1696 0.1197 -0.1429
v  -0.3038 0.1112 -0.2057
v  -0.3758 0.1891 -0.1947
v  -0.3738 0.2518 -0.1085
v  -0.2998 0.2366 -0.0332
v  -0.2277 0.1588 -0.0442
v  -0.2297 0.0961 -0.1305
v  -0.3584 -0.1273 -0.0432
v  -0.4489 -0.1130 0.0114
v  -0.4490 -0.0535 0.0999
v  -0.3586 -0.0081 0.1338
v  -0.2681 -0.0224 0.0791
v  -0.2680 -0.0820 -0.0093
v  -0.2114 -0.2892 0.0791
v  -0.2479 -0.3231 0.1734
v  -0.2573 -0.2547 0.2547
v  -0.2301 -0.1524 0.2417
v  -0.1937 -0.1185 0.1474
v  -0.1843 -0.1869 0.0661
v  -0.0361 -0.2628 0.1099
v  -0.0211 -0.2644 0.2155
v  -0.0656 -0.1894 0.2768
v  -0.1251 -0.1127 0.2325
v  -0.1400 -0.1110 0.1270
v  -0.0955 -0.1861 0.0656
v  0.0810 -0.1588 0.1022
v  0.0889 -0.1352 0.2059
v  0.0172 -0.0708 0.2515
v  -0.0624 -0.0300 0.1935
v  -0.0703 -0.0536 0.0898
v  0.0014 -0.1180 0.0441
v  0.1505 -0.0506 0.0718
v  0.1586 -0.0204 0.1738
v  0.0818 0.0388 0.2181
v  -0.0031 0.0678 0.1605
v  -0.0112 0.0377 0.0585
v  0.0656 -0.0215 0.0142
v  0.2088 0.0449 0.0371
v  0.2192 0.0896 0.1334
v  0.1441 0.1560 0.1697
v  0.0585 0.1775 0.1098
v  0.0481 0.1328 0.0136
v  0.1233 0.0664 -0.0227
# 150 vertices

vn 0.7349 -0.6664 0.1257
vn 0.8169 -0.4780 0.3229
vn 0.9330 0.3584 -0.0335
vn 0.7920 0.1982 0.5775
vn 0.2945 0.8987 -0.3250
vn 0.1377 0.8377 0.5285
vn -0.5900 0.7331 -0.3383
vn -0.6284 0.7777 0.0153
vn -0.9908 -0.1339 0.0220
vn -0.8437 -0.0054 -0.5368
vn -0.1416 -0.8781 0.4570
vn -0.1522 -0.8349 -0.5290
vn 0.7692 -0.5636 0.3012
vn 0.7961 -0.2035 -0.5699
vn 0.1550 0.3149 -0.9364
vn -0.6356 0.5820 -0.5071
vn -0.8393 0.2686 0.4727
vn -0.0429 -0.3581 0.9327
vn 0.6255 -0.7120 0.3191
vn 0.2548 -0.8297 -0.4966
vn -0.3326 -0.2974 -0.8949
vn -0.6774 0.4888 -0.5497
vn -0.4177 0.8083 0.4150
vn 0.3935 0.0964 0.9142
vn 0.3560 -0.7814 0.5125
vn -0.4402 -0.8949 0.0735
vn -0.8582 -0.2721 -0.4352
vn -0.5559 0.6325 -0.5393
vn 0.3693 0.9292 -0.0164
vn 0.8457 0.0748 0.5285
vn 0.0625 -0.7010 0.7104
vn -0.7910 -0.5268 0.3111
vn -0.9069 0.1119 -0.4062
vn -0.1124 0.6312 -0.7674
vn 0.8319 0.4307 -0.3499
vn 0.8785 -0.2470 0.4091
vn -0.0149 -0.5870 0.8094
vn -0.8663 -0.3143 0.3882
vn -0.8719 0.2576 -0.4164
vn -0.0143 0.5713 -0.8206
vn 0.8654 0.3000 -0.4013
vn 0.8590 -0.2864 0.4245
vn -0.0327 -0.5854 0.8101
vn -0.8821 -0.2003 0.4263
vn -0.8474 0.3977 -0.3517
vn -0.0002 0.6341 -0.7733
vn 0.8590 0.2798 -0.4288
vn 0.8630 -0.3384 0.3751
vn -0.3025 -0.6842 0.6636
vn -0.9259 0.0488 0.3745
vn -0.6646 0.7068 -0.2423
vn 0.1914 0.7582 -0.6233
vn 0.9068 0.1298 -0.4012
vn 0.7255 -0.6271 0.2837
vn -0.6894 -0.5033 0.5210
vn -0.6411 0.4029 0.6532
vn -0.1130 0.9692 0.2188
vn 0.5066 0.7639 -0.3998
vn 0.6256 -0.1703 -0.7614
vn -0.1123 -0.9655 -0.2349
vn -0.6588 -0.5343 0.5296
vn -0.0497 0.0165 0.9986
vn 0.5739 0.5373 0.6180
vn 0.7199 0.6303 -0.2905
vn 0.1415 0.0987 -0.9850
vn -0.6604 -0.5403 -0.5215
vn -0.6004 -0.6586 0.4536
vn 0.2793 -0.6444 0.7119
vn 0.9196 -0.1211 0.3737
vn 0.7973 0.5203 -0.3059
vn -0.1444 0.6319 -0.7615
vn -0.9545 -0.0223 -0.2973
vn -0.6063 -0.7743 0.1813
vn 0.2135 -0.9662 -0.1444
vn 0.8560 -0.3821 -0.3482
vn 0.7778 0.5415 -0.3191
vn -0.1599 0.9850 -0.0652
vn -0.9509 0.1632 0.2630
vn -0.6379 -0.7424 -0.2050
vn 0.1227 -0.6418 -0.7569
vn 0.7927 0.0153 -0.6094
vn 0.7239 0.6716 0.1579
vn -0.1130 0.5466 0.8297
vn -0.7937 -0.1819 0.5805
vn -0.6782 -0.6151 -0.4020
vn 0.1128 -0.3654 -0.9240
vn 0.8075 0.2213 -0.5468
vn 0.7177 0.5775 0.3890
vn -0.1010 0.3216 0.9415
vn -0.8013 -0.2827 0.5272
vn -0.7016 -0.5727 -0.4241
vn 0.0712 -0.2399 -0.9682
vn 0.7573 0.3380 -0.5587
vn 0.6998 0.5994 0.3886
vn -0.0576 0.2846 0.9569
vn -0.7730 -0.3090 0.5541
vn -0.5603 -0.6519 -0.5110
vn 0.1178 -0.0681 -0.9907
vn 0.6339 0.5820 -0.5093
vn 0.5429 0.7228 0.4276
vn -0.0977 0.2198 0.9706
vn -0.6971 -0.4815 0.5312
vn -0.1388 -0.5870 -0.7976
vn -0.0256 0.3369 -0.9412
vn 0.1582 0.9401 -0.3019
vn 0.2047 0.7797 0.5918
vn 0.1372 -0.1321 0.9817
vn -0.0194 -0.9782 0.2066
vn -0.1381 -0.5044 -0.8523
vn -0.7064 0.2160 -0.6741
vn -0.6683 0.7427 0.0421
vn -0.0682 0.6868 0.7237
vn 0.6696 -0.0448 0.7414
vn 0.6579 -0.7258 -0.2012
vn -0.1173 -0.6042 -0.7881
vn -0.8656 -0.4273 -0.2613
vn -0.8756 0.0920 0.4742
vn -0.1258 0.5483 0.8268
vn 0.8140 0.4475 0.3703
vn 0.8139 -0.1826 -0.5515
vn 0.0447 -0.7503 -0.6596
vn -0.2837 -0.9466 0.1530
vn -0.3707 -0.3948 0.8406
vn -0.1155 0.4821 0.8685
vn 0.3697 0.9278 0.0511
vn 0.4349 0.1582 -0.8865
vn 0.3876 -0.7704 -0.5061
vn 0.4750 -0.7727 0.4210
vn 0.1311 -0.1206 0.9840
vn -0.3409 0.6844 0.6445
vn -0.5184 0.7262 -0.4516
vn -0.0873 -0.0672 -0.9939
vn 0.6472 -0.6553 -0.3895
vn 0.7106 -0.4349 0.5531
vn 0.0777 0.1762 0.9813
vn -0.6685 0.5971 0.4434
vn -0.7464 0.3611 -0.5590
vn -0.0637 -0.2743 -0.9595
vn 0.7167 -0.5731 -0.3975
vn 0.7889 -0.2751 0.5495
vn 0.0889 0.2937 0.9517
vn -0.6990 0.5784 0.4206
vn -0.7926 0.2893 -0.5368
vn -0.0765 -0.2934 -0.9529
vn 0.7195 -0.6123 -0.3277
vn 0.8092 -0.1469 0.5689
vn 0.1258 0.4782 0.8692
vn -0.6532 0.6781 0.3369
vn -0.7962 0.2639 -0.5445
vn -0.1123 -0.3910 -0.9135
# 150 vertex normals

vt 0.7493 0.6153 0.8924
vt 0.7913 0.6119 1.0705
vt 0.8016 0.6621 1.2565
vt 0.7196 0.6737 1.0222
vt 0.8263 0.7176 1.2353
vt 0.7113 0.7575 0.9963
vt 0.8521 0.7424 1.0199
vt 0.7488 0.8165 0.8317
vt 0.8438 0.7009 0.7794
vt 0.8061 0.7585 0.6657
vt 0.8052 0.6171 0.8126
vt 0.7897 0.6364 0.7039
vt 0.8577 0.4731 1.0661
vt 0.8807 0.4994 1.2550
vt 0.9093 0.5380 1.2332
vt 0.9269 0.5661 1.0140
vt 0.9083 0.5506 0.7681
vt 0.8633 0.4889 0.8026
vt 0.9187 0.2717 0.9997
vt 0.9538 0.2925 1.1820
vt 0.9863 0.3414 1.1604
vt 0.9989 0.3862 0.9478
vt 0.9741 0.3746 0.7076
vt 0.9209 0.3011 0.7425
vt -0.0813 0.2717 0.9997
vt -0.0110 0.1357 0.7906
vt 0.0734 0.1817 0.9072
vt -0.0462 0.2925 1.1820
vt 0.0808 0.2769 0.8895
vt -0.0137 0.3414 1.1604
vt 0.0489 0.3498 0.7494
vt -0.0011 0.3862 0.9478
vt -0.0118 0.3360 0.6031
vt 0.9882 0.3360 0.6031
vt 0.9380 0.2182 0.6289
vt 0.9890 0.1357 0.7906
vt 0.2252 0.1012 0.5201
vt 0.1988 0.2420 0.6156
vt 0.1429 0.3519 0.6095
vt 0.0707 0.4051 0.5054
vt -0.0166 0.3288 0.3832
vt 0.9834 0.3288 0.3832
vt 0.9296 0.1115 0.3929
vt -0.0620 0.2182 0.6289
vt -0.0704 0.1115 0.3929
vt 0.3651 0.2904 0.3506
vt 0.2747 0.4011 0.4691
vt 0.1964 0.5048 0.4678
vt 0.1064 0.5801 0.3469
vt -0.0266 0.5321 0.1521
vt 0.9734 0.5321 0.1521
vt 0.5523 0.1674 0.1563
vt 0.4165 0.5298 0.4132
vt 0.3337 0.5825 0.5219
vt 0.2630 0.6891 0.5221
vt 0.1885 0.8292 0.4138
vt -0.3444 0.9499 0.2637
vt 0.6556 0.9499 0.2637
vt 0.5192 0.6266 0.2633
vt 0.4400 0.6319 0.6314
vt 0.3850 0.6960 0.7418
vt 0.3572 0.8047 0.7527
vt 0.4230 0.9058 0.6567
vt 0.5593 0.8284 0.5289
vt 0.5134 0.6741 0.5133
vt 0.4716 0.6476 0.8729
vt 0.4671 0.7125 1.0569
vt 0.4965 0.7812 1.0769
vt 0.5520 0.8010 0.9205
vt 0.5660 0.7414 0.7017
vt 0.5132 0.6500 0.6705
vt 0.5360 0.5398 0.9952
vt 0.5533 0.5702 1.2138
vt 0.5834 0.6098 1.2353
vt 0.6093 0.6343 1.0469
vt 0.6026 0.6196 0.7830
vt 0.5541 0.5578 0.7485
vt 0.6091 0.3340 1.0422
vt 0.6283 0.3610 1.2618
vt 0.6558 0.4046 1.2826
vt 0.6755 0.4387 1.0917
vt 0.6693 0.4245 0.8281
vt 0.6270 0.3552 0.7955
vt 0.6906 0.2094 0.9425
vt 0.7293 0.2408 1.1319
vt 0.7425 0.3130 1.1550
vt 0.7328 0.3755 0.9969
vt 0.7028 0.3724 0.7751
vt 0.6717 0.2723 0.7403
vt 0.8151 0.1916 0.7085
vt 0.8307 0.2780 0.8668
vt 0.8031 0.3632 0.8971
vt 0.7603 0.4098 0.7804
vt 0.7163 0.3658 0.5998
vt 0.7230 0.2181 0.5533
vt 0.9148 0.2946 0.5088
vt 0.8871 0.3879 0.6946
vt 0.8391 0.4631 0.7327
vt 0.7853 0.5020 0.6065
vt 0.7450 0.4474 0.3799
vt 0.8273 0.2416 0.2997
vt 0.9802 0.4703 0.4492
vt 0.9331 0.5204 0.6496
vt 0.8790 0.5907 0.6903
vt 0.8238 0.6562 0.5574
vt 0.7981 0.7032 0.3008
vt 0.9671 0.5453 0.1897
vt -0.0198 0.4703 0.4492
vt 0.0280 0.6057 0.5724
vt -0.0217 0.6433 0.7493
vt 0.9783 0.6433 0.7493
vt 0.9315 0.7242 0.7785
vt 0.8937 0.8179 0.6455
vt 0.9662 0.8924 0.4276
vt -0.2019 0.7032 0.3008
vt -0.0338 0.8924 0.4276
vt 0.0698 0.7072 0.3719
vt -0.0329 0.5453 0.1897
vt 0.0689 0.6568 0.7744
vt 0.0488 0.7227 0.9562
vt 0.0479 0.8122 0.9661
vt -0.0685 0.7242 0.7785
vt 0.0916 0.8776 0.7985
vt -0.1063 0.8179 0.6455
vt 0.1468 0.8317 0.5684
vt 0.1085 0.6857 0.5514
vt 0.1406 0.6063 0.8612
vt 0.1637 0.6491 1.0610
vt 0.1985 0.7048 1.0627
vt 0.2295 0.7435 0.8652
vt 0.2114 0.7323 0.6038
vt 0.1488 0.6331 0.6009
vt 0.2283 0.3752 0.8379
vt 0.2552 0.4116 1.0360
vt 0.2901 0.4589 1.0370
vt 0.3167 0.4927 0.8403
vt 0.3075 0.4696 0.5787
vt 0.2441 0.3840 0.5769
vt 0.3256 0.1744 0.8544
vt 0.3671 0.2163 1.0477
vt 0.3936 0.2895 1.0455
vt 0.4006 0.3508 0.8491
vt 0.3806 0.3329 0.5944
vt 0.3266 0.2116 0.5982
vt 0.5266 0.1294 0.7214
vt 0.5245 0.2209 0.8673
vt 0.4938 0.3103 0.8501
vt 0.4536 0.3630 0.6793
vt 0.4068 0.3020 0.4791
vt 0.4133 0.1274 0.5090
vt 0.6463 0.2622 0.5885
vt 0.5965 0.3440 0.7226
vt 0.5441 0.4169 0.6880
vt 0.4938 0.4523 0.4985
vt 0.4732 0.3342 0.2695
vt 0.6416 0.1758 0.3487
vt 0.6955 0.4282 0.5653
vt 0.6406 0.4771 0.6997
vt 0.5886 0.5480 0.6610
vt 0.5492 0.6217 0.4631
vt 0.6001 0.6515 0.2109
vt 0.7294 0.4457 0.3115
vt 0.7269 0.5537 0.6830
vt 0.6772 0.5914 0.8047
vt 0.6369 0.6712 0.7721
vt 0.6264 0.7682 0.6030
vt 0.7269 0.7891 0.4273
vt 0.7689 0.6138 0.4838
# 168 texture coords

g Torus_Knot001
usemtl FrontColor
s 1
f 1/1/1 2/2/2 3/3/3 
f 1/1/1 3/3/3 4/4/4 
f 4/4/4 3/3/3 5/5/5 
f 4/4/4 5/5/5 6/6/6 
f 6/6/6 5/5/5 7/7/7 
f 6/6/6 7/7/7 8/8/8 
f 8/8/8 7/7/7 9/9/9 
f 8/8/8 9/9/9 10/10/10 
f 10/10/10 9/9/9 11/11/11 
f 10/10/10 11/11/11 12/12/12 
f 12/12/12 11/11/11 2/2/2 
f 12/12/12 2/2/2 1/1/1 
f 2/2/2 13/13/13 14/14/14 
f 2/2/2 14/14/14 3/3/3 
f 3/3/3 14/14/14 15/15/15 
f 3/3/3 15/15/15 5/5/5 
f 5/5/5 15/15/15 16/16/16 
f 5/5/5 16/16/16 7/7/7 
f 7/7/7 16/16/16 17/17/17 
f 7/7/7 17/17/17 9/9/9 
f 9/9/9 17/17/17 18/18/18 
f 9/9/9 18/18/18 11/11/11 
f 11/11/11 18/18/18 13/13/13 
f 11/11/11 13/13/13 2/2/2 
f 13/13/13 19/19/19 20/20/20 
f 13/13/13 20/20/20 14/14/14 
f 14/14/14 20/20/20 21/21/21 
f 14/14/14 21/21/21 15/15/15 
f 15/15/15 21/21/21 22/22/22 
f 15/15/15 22/22/22 16/16/16 
f 16/16/16 22/22/22 23/23/23 
f 16/16/16 23/23/23 17/17/17 
f 17/17/17 23/23/23 24/24/24 
f 17/17/17 24/24/24 18/18/18 
f 18/18/18 24/24/24 19/19/19 
f 18/18/18 19/19/19 13/13/13 
f 19/25/19 25/26/25 26/27/26 
f 19/25/19 26/27/26 20/28/20 
f 20/28/20 26/27/26 27/29/27 
f 20/28/20 27/29/27 21/30/21 
f 21/30/21 27/29/27 28/31/28 
f 21/30/21 28/31/28 22/32/22 
f 22/32/22 28/31/28 29/33/29 
f 22/22/22 29/34/29 23/23/23 
f 23/23/23 29/34/29 30/35/30 
f 23/23/23 30/35/30 24/24/24 
f 24/24/24 30/35/30 25/36/25 
f 24/24/24 25/36/25 19/19/19 
f 25/26/25 31/37/31 32/38/32 
f 25/26/25 32/38/32 26/27/26 
f 26/27/26 32/38/32 33/39/33 
f 26/27/26 33/39/33 27/29/27 
f 27/29/27 33/39/33 34/40/34 
f 27/29/27 34/40/34 28/31/28 
f 28/31/28 34/40/34 35/41/35 
f 28/31/28 35/41/35 29/33/29 
f 29/34/29 35/42/35 36/43/36 
f 29/34/29 36/43/36 30/35/30 
f 30/44/30 36/45/36 31/37/31 
f 30/44/30 31/37/31 25/26/25 
f 31/37/31 37/46/37 38/47/38 
f 31/37/31 38/47/38 32/38/32 
f 32/38/32 38/47/38 39/48/39 
f 32/38/32 39/48/39 33/39/33 
f 33/39/33 39/48/39 40/49/40 
f 33/39/33 40/49/40 34/40/34 
f 34/40/34 40/49/40 41/50/41 
f 34/40/34 41/50/41 35/41/35 
f 35/42/35 41/51/41 42/52/42 
f 35/42/35 42/52/42 36/43/36 
f 36/45/36 42/52/42 37/46/37 
f 36/45/36 37/46/37 31/37/31 
f 37/46/37 43/53/43 44/54/44 
f 37/46/37 44/54/44 38/47/38 
f 38/47/38 44/54/44 45/55/45 
f 38/47/38 45/55/45 39/48/39 
f 39/48/39 45/55/45 46/56/46 
f 39/48/39 46/56/46 40/49/40 
f 40/49/40 46/56/46 47/57/47 
f 40/49/40 47/57/47 41/50/41 
f 41/51/41 47/58/47 48/59/48 
f 41/51/41 48/59/48 42/52/42 
f 42/52/42 48/59/48 43/53/43 
f 42/52/42 43/53/43 37/46/37 
f 43/53/43 49/60/49 50/61/50 
f 43/53/43 50/61/50 44/54/44 
f 44/54/44 50/61/50 51/62/51 
f 44/54/44 51/62/51 45/55/45 
f 45/55/45 51/62/51 52/63/52 
f 45/55/45 52/63/52 46/56/46 
f 46/56/46 52/63/52 53/64/53 
f 46/56/46 53/64/53 47/58/47 
f 47/58/47 53/64/53 54/65/54 
f 47/58/47 54/65/54 48/59/48 
f 48/59/48 54/65/54 49/60/49 
f 48/59/48 49/60/49 43/53/43 
f 49/60/49 55/66/55 56/67/56 
f 49/60/49 56/67/56 50/61/50 
f 50/61/50 56/67/56 57/68/57 
f 50/61/50 57/68/57 51/62/51 
f 51/62/51 57/68/57 58/69/58 
f 51/62/51 58/69/58 52/63/52 
f 52/63/52 58/69/58 59/70/59 
f 52/63/52 59/70/59 53/64/53 
f 53/64/53 59/70/59 60/71/60 
f 53/64/53 60/71/60 54/65/54 
f 54/65/54 60/71/60 55/66/55 
f 54/65/54 55/66/55 49/60/49 
f 55/66/55 61/72/61 62/73/62 
f 55/66/55 62/73/62 56/67/56 
f 56/67/56 62/73/62 63/74/63 
f 56/67/56 63/74/63 57/68/57 
f 57/68/57 63/74/63 64/75/64 
f 57/68/57 64/75/64 58/69/58 
f 58/69/58 64/75/64 65/76/65 
f 58/69/58 65/76/65 59/70/59 
f 59/70/59 65/76/65 66/77/66 
f 59/70/59 66/77/66 60/71/60 
f 60/71/60 66/77/66 61/72/61 
f 60/71/60 61/72/61 55/66/55 
f 61/72/61 67/78/67 68/79/68 
f 61/72/61 68/79/68 62/73/62 
f 62/73/62 68/79/68 69/80/69 
f 62/73/62 69/80/69 63/74/63 
f 63/74/63 69/80/69 70/81/70 
f 63/74/63 70/81/70 64/75/64 
f 64/75/64 70/81/70 71/82/71 
f 64/75/64 71/82/71 65/76/65 
f 65/76/65 71/82/71 72/83/72 
f 65/76/65 72/83/72 66/77/66 
f 66/77/66 72/83/72 67/78/67 
f 66/77/66 67/78/67 61/72/61 
f 67/78/67 73/84/73 74/85/74 
f 67/78/67 74/85/74 68/79/68 
f 68/79/68 74/85/74 75/86/75 
f 68/79/68 75/86/75 69/80/69 
f 69/80/69 75/86/75 76/87/76 
f 69/80/69 76/87/76 70/81/70 
f 70/81/70 76/87/76 77/88/77 
f 70/81/70 77/88/77 71/82/71 
f 71/82/71 77/88/77 78/89/78 
f 71/82/71 78/89/78 72/83/72 
f 72/83/72 78/89/78 73/84/73 
f 72/83/72 73/84/73 67/78/67 
f 73/84/73 79/90/79 80/91/80 
f 73/84/73 80/91/80 74/85/74 
f 74/85/74 80/91/80 81/92/81 
f 74/85/74 81/92/81 75/86/75 
f 75/86/75 81/92/81 82/93/82 
f 75/86/75 82/93/82 76/87/76 
f 76/87/76 82/93/82 83/94/83 
f 76/87/76 83/94/83 77/88/77 
f 77/88/77 83/94/83 84/95/84 
f 77/88/77 84/95/84 78/89/78 
f 78/89/78 84/95/84 79/90/79 
f 78/89/78 79/90/79 73/84/73 
f 79/90/79 85/96/85 86/97/86 
f 79/90/79 86/97/86 80/91/80 
f 80/91/80 86/97/86 87/98/87 
f 80/91/80 87/98/87 81/92/81 
f 81/92/81 87/98/87 88/99/88 
f 81/92/81 88/99/88 82/93/82 
f 82/93/82 88/99/88 89/100/89 
f 82/93/82 89/100/89 83/94/83 
f 83/94/83 89/100/89 90/101/90 
f 83/94/83 90/101/90 84/95/84 
f 84/95/84 90/101/90 85/96/85 
f 84/95/84 85/96/85 79/90/79 
f 85/96/85 91/102/91 92/103/92 
f 85/96/85 92/103/92 86/97/86 
f 86/97/86 92/103/92 93/104/93 
f 86/97/86 93/104/93 87/98/87 
f 87/98/87 93/104/93 94/105/94 
f 87/98/87 94/105/94 88/99/88 
f 88/99/88 94/105/94 95/106/95 
f 88/99/88 95/106/95 89/100/89 
f 89/100/89 95/106/95 96/107/96 
f 89/100/89 96/107/96 90/101/90 
f 90/101/90 96/107/96 91/102/91 
f 90/101/90 91/102/91 85/96/85 
f 91/108/91 97/109/97 98/110/98 
f 91/102/91 98/111/98 92/103/92 
f 92/103/92 98/111/98 99/112/99 
f 92/103/92 99/112/99 93/104/93 
f 93/104/93 99/112/99 100/113/100 
f 93/104/93 100/113/100 94/105/94 
f 94/105/94 100/113/100 101/114/101 
f 94/105/94 101/114/101 95/106/95 
f 95/115/95 101/116/101 102/117/102 
f 95/115/95 102/117/102 96/118/96 
f 96/118/96 102/117/102 97/109/97 
f 96/118/96 97/109/97 91/108/91 
f 97/109/97 103/119/103 104/120/104 
f 97/109/97 104/120/104 98/110/98 
f 98/110/98 104/120/104 105/121/105 
f 98/110/98 105/121/105 99/122/99 
f 99/122/99 105/121/105 106/123/106 
f 99/122/99 106/123/106 100/124/100 
f 100/124/100 106/123/106 107/125/107 
f 100/124/100 107/125/107 101/116/101 
f 101/116/101 107/125/107 108/126/108 
f 101/116/101 108/126/108 102/117/102 
f 102/117/102 108/126/108 103/119/103 
f 102/117/102 103/119/103 97/109/97 
f 103/119/103 109/127/109 110/128/110 
f 103/119/103 110/128/110 104/120/104 
f 104/120/104 110/128/110 111/129/111 
f 104/120/104 111/129/111 105/121/105 
f 105/121/105 111/129/111 112/130/112 
f 105/121/105 112/130/112 106/123/106 
f 106/123/106 112/130/112 113/131/113 
f 106/123/106 113/131/113 107/125/107 
f 107/125/107 113/131/113 114/132/114 
f 107/125/107 114/132/114 108/126/108 
f 108/126/108 114/132/114 109/127/109 
f 108/126/108 109/127/109 103/119/103 
f 109/127/109 115/133/115 116/134/116 
f 109/127/109 116/134/116 110/128/110 
f 110/128/110 116/134/116 117/135/117 
f 110/128/110 117/135/117 111/129/111 
f 111/129/111 117/135/117 118/136/118 
f 111/129/111 118/136/118 112/130/112 
f 112/130/112 118/136/118 119/137/119 
f 112/130/112 119/137/119 113/131/113 
f 113/131/113 119/137/119 120/138/120 
f 113/131/113 120/138/120 114/132/114 
f 114/132/114 120/138/120 115/133/115 
f 114/132/114 115/133/115 109/127/109 
f 115/133/115 121/139/121 122/140/122 
f 115/133/115 122/140/122 116/134/116 
f 116/134/116 122/140/122 123/141/123 
f 116/134/116 123/141/123 117/135/117 
f 117/135/117 123/141/123 124/142/124 
f 117/135/117 124/142/124 118/136/118 
f 118/136/118 124/142/124 125/143/125 
f 118/136/118 125/143/125 119/137/119 
f 119/137/119 125/143/125 126/144/126 
f 119/137/119 126/144/126 120/138/120 
f 120/138/120 126/144/126 121/139/121 
f 120/138/120 121/139/121 115/133/115 
f 121/139/121 127/145/127 128/146/128 
f 121/139/121 128/146/128 122/140/122 
f 122/140/122 128/146/128 129/147/129 
f 122/140/122 129/147/129 123/141/123 
f 123/141/123 129/147/129 130/148/130 
f 123/141/123 130/148/130 124/142/124 
f 124/142/124 130/148/130 131/149/131 
f 124/142/124 131/149/131 125/143/125 
f 125/143/125 131/149/131 132/150/132 
f 125/143/125 132/150/132 126/144/126 
f 126/144/126 132/150/132 127/145/127 
f 126/144/126 127/145/127 121/139/121 
f 127/145/127 133/151/133 134/152/134 
f 127/145/127 134/152/134 128/146/128 
f 128/146/128 134/152/134 135/153/135 
f 128/146/128 135/153/135 129/147/129 
f 129/147/129 135/153/135 136/154/136 
f 129/147/129 136/154/136 130/148/130 
f 130/148/130 136/154/136 137/155/137 
f 130/148/130 137/155/137 131/149/131 
f 131/149/131 137/155/137 138/156/138 
f 131/149/131 138/156/138 132/150/132 
f 132/150/132 138/156/138 133/151/133 
f 132/150/132 133/151/133 127/145/127 
f 133/151/133 139/157/139 140/158/140 
f 133/151/133 140/158/140 134/152/134 
f 134/152/134 140/158/140 141/159/141 
f 134/152/134 141/159/141 135/153/135 
f 135/153/135 141/159/141 142/160/142 
f 135/153/135 142/160/142 136/154/136 
f 136/154/136 142/160/142 143/161/143 
f 136/154/136 143/161/143 137/155/137 
f 137/155/137 143/161/143 144/162/144 
f 137/155/137 144/162/144 138/156/138 
f 138/156/138 144/162/144 139/157/139 
f 138/156/138 139/157/139 133/151/133 
f 139/157/139 145/163/145 146/164/146 
f 139/157/139 146/164/146 140/158/140 
f 140/158/140 146/164/146 147/165/147 
f 140/158/140 147/165/147 141/159/141 
f 141/159/141 147/165/147 148/166/148 
f 141/159/141 148/166/148 142/160/142 
f 142/160/142 148/166/148 149/167/149 
f 142/160/142 149/167/149 143/161/143 
f 143/161/143 149/167/149 150/168/150 
f 143/161/143 150/168/150 144/162/144 
f 144/162/144 150/168/150 145/163/145 
f 144/162/144 145/163/145 139/157/139 
f 145/163/145 1/1/1 4/4/4 
f 145/163/145 4/4/4 146/164/146 
f 146/164/146 4/4/4 6/6/6 
f 146/164/146 6/6/6 147/165/147 
f 147/165/147 6/6/6 8/8/8 
f 147/165/147 8/8/8 148/166/148 
f 148/166/148 8/8/8 10/10/10 
f 148/166/148 10/10/10 149/167/149 
f 149/167/149 10/10/10 12/12/12 
f 149/167/149 12/12/12 150/168/150 
f 150/168/150 12/12/12 1/1/1 
f 150/168/150 1/1/1 145/163/145 
# 300 faces

